<svg width="800" height="933" viewBox="0 0 800 933" fill="none" xmlns="http://www.w3.org/2000/svg">
<path d="M1 -10C11.7699 87 8.17995 183.5 82.0309 236C155.882 288.5 267.65 316.818 348.202 341C523.085 393.5 630.784 471 671.812 529.5C712.841 588 742.073 646.5 754.895 731C767.032 810.993 766.69 832.5 766.69 914.5C766.69 923.092 766.69 936.5 766.69 936.5" stroke="black"/>
<path d="M142.034 -10C152.804 87 149.214 183.5 223.065 236C296.916 288.5 425.34 325.171 503.596 365C683.095 456.356 727.713 558 727.713 558C747.714 595.5 790.794 706.5 794.897 804C798.297 884.795 799 887 799 930.5" stroke="black"/>
</svg>
