<svg width="748" height="933" viewBox="0 0 748 933" fill="none" xmlns="http://www.w3.org/2000/svg">
<path d="M747 -3C736.92 93.9488 740.28 190.398 671.163 242.87C602.046 295.342 497.442 323.646 422.053 347.815C258.38 400.287 157.584 477.746 119.185 536.215C80.7868 594.684 53.4279 653.153 41.4284 737.609C30.0689 817.559 30.3888 839.055 30.3888 921.012C30.3888 929.599 30.3888 943 30.3888 943" stroke="black"/>
<path d="M615.885 -3C605.805 93.948 609.165 190.396 540.044 242.868C470.924 295.34 350.726 331.992 277.482 371.799C109.481 463.106 67.7204 564.696 67.7204 564.696C49.0003 602.176 8.67995 713.116 4.83992 810.564C1.6578 891.316 0.999893 886.523 0.999893 930" stroke="black"/>
</svg>
